<svg role="img" fill="none" xmlns="http://www.w3.org/2000/svg" viewBox="0 0 304 215"><path d="M0 137.25l133.45 77.06 170.23-98.93.05-16.05-133.46-77.05L.04 121.21" fill="#428489"/><path d="M303.73 99.33L133.5 198.26.04 121.21l170.23-98.93 133.46 77.05z" fill="#188B9B"/><path d="M303.73 99.33l-.05 16.05-170.23 98.93.05-16.05 170.23-98.93zM133.5 198.26l-.05 16.05L0 137.25l.04-16.04 133.46 77.05z" fill="#136F7C"/><path d="M208.65 44.03l-18.83 10.93-8.1-4.67 18.82-10.94 8.11 4.68z" fill="#707070"/><path d="M208.65 44.03l-.01 3.01-18.83 10.94.01-3.02 18.83-10.93z" fill="#565656"/><path d="M189.82 54.96l-.01 3.02-8.1-4.68.01-3.01 8.1 4.67z" fill="#505050"/><path d="M193.88 37.29v12.53a1.42 1.42 0 01-.83 1.16 4.39 4.39 0 01-4.05 0 1.419 1.419 0 01-.85-1.18V37.28c.045.517.367.968.84 1.18a4.45 4.45 0 004.05 0c.47-.21.791-.657.84-1.17z" fill="#E2A966"/><path d="M193.04 36.11a1.24 1.24 0 010 2.35 4.45 4.45 0 01-4.05 0 1.24 1.24 0 010-2.35 4.51 4.51 0 014.05 0z" fill="#FFE180"/><path d="M201.79 32.69v12.52a1.42 1.42 0 01-.83 1.17 4.45 4.45 0 01-4 0 1.43 1.43 0 01-.85-1.18V32.67c.041.518.364.971.84 1.18a4.45 4.45 0 004.05 0c.449-.22.75-.661.79-1.16z" fill="#E2A966"/><path d="M200.95 31.51a1.23 1.23 0 010 2.34 4.45 4.45 0 01-4.05 0 1.23 1.23 0 010-2.34 4.45 4.45 0 014.05 0z" fill="#FFE180"/><path d="M216.75 48.63l-18.82 10.94-8.11-4.68 18.83-10.94 8.1 4.68z" fill="#707070"/><path d="M216.75 48.63l-.01 3.02-18.82 10.94.01-3.02 18.82-10.94z" fill="#565656"/><path d="M197.93 59.57l-.01 3.02-8.11-4.68.01-3.02 8.11 4.68z" fill="#505050"/><path d="M201.99 41.9v12.52a1.42 1.42 0 01-.83 1.17 4.45 4.45 0 01-4 0 1.45 1.45 0 01-.85-1.18V41.88c.045.52.371.973.85 1.18a4.43 4.43 0 004 0 1.41 1.41 0 00.83-1.16z" fill="#E2A966"/><path d="M201.14 40.72c1.13.65 1.13 1.7 0 2.34a4.43 4.43 0 01-4 0 1.23 1.23 0 010-2.34 4.45 4.45 0 014 0z" fill="#FFE180"/><path d="M209.9 37.29v12.53a1.42 1.42 0 01-.83 1.16 4.39 4.39 0 01-4.05 0 1.439 1.439 0 01-.85-1.18V37.28c.049.518.374.97.85 1.18a4.45 4.45 0 004.05 0c.466-.213.783-.66.83-1.17z" fill="#E2A966"/><path d="M209.05 36.11a1.24 1.24 0 010 2.35 4.45 4.45 0 01-4.05 0c-1.12-.65-1.14-1.7 0-2.35a4.51 4.51 0 014.05 0z" fill="#FFE180"/><path d="M224.86 53.23l-18.83 10.94-8.1-4.68 18.82-10.93 8.11 4.67z" fill="#707070"/><path d="M224.86 53.23l-.01 3.02-18.83 10.94.01-3.02 18.83-10.94z" fill="#565656"/><path d="M206.03 64.17l-.01 3.02-8.1-4.68.01-3.02 8.1 4.68z" fill="#505050"/><path d="M210.09 46.5v12.53a1.41 1.41 0 01-.84 1.16 4.39 4.39 0 01-4.05 0 1.43 1.43 0 01-.84-1.18V46.48c.05.52.374.974.85 1.19a4.45 4.45 0 004.05 0 1.44 1.44 0 00.83-1.17z" fill="#E2A966"/><path d="M209.25 45.32a1.24 1.24 0 010 2.35 4.45 4.45 0 01-4.05 0 1.24 1.24 0 010-2.35 4.45 4.45 0 014.05 0z" fill="#FFE180"/><path d="M218 41.9v12.52a1.41 1.41 0 01-.84 1.17 4.45 4.45 0 01-4.05 0 1.439 1.439 0 01-.84-1.18V41.88c.049.518.374.97.85 1.18a4.45 4.45 0 004.05 0 1.42 1.42 0 00.83-1.16z" fill="#E2A966"/><path d="M217.16 40.72a1.24 1.24 0 010 2.34 4.45 4.45 0 01-4.05 0 1.23 1.23 0 010-2.34 4.45 4.45 0 014.05 0z" fill="#FFE180"/><path d="M78.68 109.85l-.01 4.81 20.49 11.83 20.36-11.83.01-4.81-20.49-11.83-20.36 11.83z" fill="#707070"/><path d="M119.53 109.85l-20.36 11.83-20.49-11.83 20.36-11.83 20.49 11.83z" fill="#707070"/><path d="M119.53 109.85l-.01 4.81-20.36 11.83.01-4.81 20.36-11.83z" fill="#565656"/><path d="M99.17 121.68l-.01 4.81-20.49-11.83.01-4.81 20.49 11.83z" fill="#505050"/><path d="M40.18 113.26L20.17 124.9.02 113.26l20.02-11.63 20.14 11.63z" fill="#585858"/><path d="M40.18 113.26l-.02 7.93-20.01 11.63.02-7.92 20.01-11.64z" fill="#4F4F4F"/><path d="M20.17 124.9l-.02 7.92L0 121.19l.02-7.93 20.15 11.64z" fill="#373737"/><path d="M40.18 109l-20.02 11.64L.01 109l20.02-11.63L40.18 109z" fill="#DCDCDC"/><path d="M40.18 109l-.01 3.97-20.02 11.63.01-3.96L40.18 109z" fill="#C5C5C5"/><path d="M20.16 120.64l-.01 3.96L0 112.97.01 109l20.15 11.64z" fill="#898989"/><path d="M26.19 105.4c3.38 1.95 3.4 5.11 0 7.07a13.488 13.488 0 01-12.22 0c-3.39-2-3.4-5.12 0-7.07a13.433 13.433 0 0112.22 0z" fill="#fff"/><path d="M36.22 107.7v1.66a1.561 1.561 0 01-.91 1.28 4.909 4.909 0 01-4.45 0 1.58 1.58 0 01-.94-1.3v-1.66a1.58 1.58 0 00.94 1.3 4.909 4.909 0 004.45 0c.513-.23.861-.72.91-1.28z" fill="#727272"/><path d="M35.29 106.4a1.36 1.36 0 010 2.58 4.909 4.909 0 01-4.45 0c-1.24-.71-1.25-1.87 0-2.58a4.909 4.909 0 014.45 0z" fill="#9B9B9B"/><path d="M23.26 115.38v1.66a1.56 1.56 0 01-.92 1.28 4.909 4.909 0 01-4.45 0 1.58 1.58 0 01-.93-1.3v-1.66c.05.571.406 1.069.93 1.3a4.848 4.848 0 004.45 0 1.55 1.55 0 00.92-1.28z" fill="#727272"/><path d="M22.33 114.09c1.23.71 1.24 1.86 0 2.57a4.848 4.848 0 01-4.45 0c-1.24-.71-1.24-1.86 0-2.57a4.872 4.872 0 014.45 0z" fill="#9B9B9B"/><path d="M10.4 107.7v1.66a1.56 1.56 0 01-.91 1.28 4.909 4.909 0 01-4.45 0 1.58 1.58 0 01-.94-1.3v-1.66a1.58 1.58 0 00.93 1.3 4.909 4.909 0 004.45 0 1.54 1.54 0 00.92-1.28z" fill="#727272"/><path d="M9.47 106.4a1.36 1.36 0 010 2.58 4.909 4.909 0 01-4.45 0 1.36 1.36 0 010-2.58 4.909 4.909 0 014.45 0z" fill="#9B9B9B"/><path d="M23.26 100.98v1.66a1.58 1.58 0 01-.92 1.28 4.909 4.909 0 01-4.45 0 1.58 1.58 0 01-.93-1.3v-1.66a1.58 1.58 0 00.93 1.3 4.909 4.909 0 004.45 0 1.56 1.56 0 00.92-1.28z" fill="#727272"/><path d="M22.33 99.68a1.36 1.36 0 010 2.58 4.909 4.909 0 01-4.45 0 1.36 1.36 0 010-2.58 4.94 4.94 0 014.45 0z" fill="#9B9B9B"/><path d="M27.66 100.51v7.92a3.74 3.74 0 01-2.19 3.07 11.743 11.743 0 01-10.64 0 3.791 3.791 0 01-2.23-3.11v-7.92a3.76 3.76 0 002.23 3.1 11.681 11.681 0 0010.64 0 3.71 3.71 0 002.19-3.06z" fill="#EA541F"/><path d="M25.41 97.41c2.95 1.7 3 4.46 0 6.16a11.681 11.681 0 01-10.64 0c-2.95-1.7-3-4.46 0-6.16a11.7 11.7 0 0110.64 0z" fill="#F2B164"/><path d="M139.46 98.68l-.05 18.81 24.11 13.92 88.77-51.59.06-18.81-24.11-13.92-88.78 51.59z" fill="#383838"/><path d="M252.35 61.01l-88.78 51.59-24.11-13.92 88.78-51.59 24.11 13.92z" fill="#545454"/><path d="M252.35 61.01l-.06 18.81-88.77 51.59.05-18.81 88.78-51.59z" fill="#424242"/><path d="M163.57 112.6l-.05 18.81-24.11-13.92.05-18.81 24.11 13.92z" fill="#383838"/><path d="M134.03 151.59l-.01 4.81 17.1 9.88 34.31-19.94.01-4.81-17.11-9.88-34.3 19.94z" fill="#515151"/><path d="M185.44 141.53l-34.3 19.93-17.11-9.87 34.3-19.94 17.11 9.88z" fill="#696969"/><path d="M185.44 141.53l-.01 4.81-34.31 19.94.02-4.82 34.3-19.93z" fill="#515151"/><path d="M151.14 161.46l-.02 4.82-17.1-9.88.01-4.81 17.11 9.87z" fill="#4C4C4C"/><path d="M179.05 127.74v13.34c0 1.54-1 3.08-3.05 4.25a16.272 16.272 0 01-14.79 0c-2.06-1.19-3.08-2.75-3.08-4.31v-13.34c0 1.56 1 3.13 3.08 4.32a16.333 16.333 0 0014.79 0c2.03-1.18 3.04-2.71 3.05-4.26z" fill="#AFAFAF"/><path d="M175.95 123.43c4.11 2.37 4.13 6.2 0 8.57a16.333 16.333 0 01-14.79 0c-4.09-2.37-4.11-6.2-.05-8.57a16.272 16.272 0 0114.84 0z" fill="#DBDBDB"/><path d="M161.37 137.9v13.33c0 1.54-1 3.08-3 4.26a16.302 16.302 0 01-14.79 0c-2.06-1.19-3.09-2.75-3.09-4.31v-13.33c0 1.56 1 3.12 3.08 4.31a16.302 16.302 0 0014.79 0c1.99-1.19 3-2.73 3.01-4.26z" fill="#AFAFAF"/><path d="M158.28 133.57c4.1 2.37 4.12 6.21 0 8.58a16.302 16.302 0 01-14.79 0c-4.09-2.36-4.11-6.2 0-8.56a16.3 16.3 0 0114.79-.02z" fill="#DBDBDB"/><path d="M274.46 103.9a16.822 16.822 0 0015.29 0c4.19-2.43 4.17-6.4-.07-8.85a16.88 16.88 0 00-15.26 0c-4.21 2.4-4.18 6.37.04 8.85z" fill="#22CADD"/><path d="M277.06 102.34a10.998 10.998 0 0010.07 0c2.76-1.6 2.75-4.21 0-5.82a11.06 11.06 0 00-10 0c-2.87 1.61-2.85 4.22-.07 5.82z" fill="#AFAB95"/><path d="M277.05 102.34a11.001 11.001 0 0010.06 0 11.142 11.142 0 00-10.06 0z" fill="#fff"/><path d="M159.07 171.3a16.822 16.822 0 0015.29 0c4.19-2.44 4.17-6.4-.07-8.85a16.821 16.821 0 00-15.26 0c-4.21 2.45-4.19 6.45.04 8.85z" fill="#22CADD"/><path d="M161.66 169.79a11.101 11.101 0 0010.07 0c2.76-1.6 2.75-4.22 0-5.83a11.121 11.121 0 00-10.05 0c-2.81 1.61-2.79 4.23-.02 5.83z" fill="#AFAB95"/><path d="M161.66 169.79a11.08 11.08 0 0010.06 0 11.142 11.142 0 00-10.06 0z" fill="#fff"/><path d="M182.32 159.89l6.61 3.81 51.69-30.04.1-32.1-6.62-3.82M104.12 30.05l-.09 32.1 6.61 3.81 51.69-30.04.09-32.09L155.81 0l-51.69 30.05z" fill="#363636"/><path d="M158.96 3.71l-3.04 1.77-3.06-1.77 3.05-1.77 3.05 1.77zM152.49 7.46l-3.03 1.77-3.05-1.77 3.03-1.76 3.05 1.76zM146.04 11.22l-3.05 1.77-3.05-1.77 3.04-1.77 3.06 1.77zM139.57 14.98l-3.03 1.76-3.06-1.76 3.04-1.77 3.05 1.77zM133.11 18.73l-3.04 1.77-3.06-1.76 3.05-1.78 3.05 1.77zM126.66 22.48l-3.05 1.77-3.06-1.76 3.05-1.77 3.06 1.76zM113.73 29.99l-3.05 1.77-3.05-1.76 3.05-1.77 3.05 1.76z" fill="#191919"/><path d="M155.81 0l6.61 3.82-51.69 30.08-6.61-3.82L155.81 0zm-45.15 31.76l3.05-1.77-3.05-1.76-3 1.77 3 1.76zM155.9 5.48l3-1.77-2.99-1.81-3.05 1.77 3.06 1.77-.02.04zm-12.91 7.47l3.05-1.77-3.06-1.77-3 1.77 3.05 1.77h-.04zm-12.92 7.55l3-1.77-3.05-1.76-3 1.77 3.06 1.76h-.01zm-6.41 3.75l3-1.77-3.06-1.76-3.05 1.77 3.11 1.76zm-6.47 3.76l3-1.77-3.06-1.76-3 1.77 3.05 1.76h.01zm32.27-18.78l3-1.77-3.06-1.76-3 1.77 3.05 1.76h.01zm-12.94 7.51l3-1.76-3.06-1.77-3 1.77 3.05 1.76h.01z" fill="#7A7A7A"/><path d="M120.19 26.24l-3.05 1.77-3.05-1.76 3.04-1.77 3.06 1.76z" fill="#191919"/><path d="M110.73 33.87l-.09 32.09-6.61-3.81.09-32.1 6.61 3.82z" fill="#363636"/><path d="M162.42 3.83l-.09 32.09-51.69 30.04.09-32.09 51.69-30.04z" fill="#3E3E3E"/><path d="M104.12 69.75l-64.3 37.37-6.61-3.82.09-32.1 64.3-37.37 6.61 3.82-.09 32.1z" fill="#363636"/><path d="M100.69 37.57l-3.04 1.77-3.06-1.76 3.05-1.77 3.05 1.76z" fill="#191919"/><path d="M97.6 33.83l6.61 3.82-64.3 37.37-6.61-3.82 64.3-37.37zM39.86 72.9l3.05-1.77-3.06-1.76-3 1.77 3.01 1.76zm38.8-22.51l3-1.78-3-1.71-3.05 1.77 3.06 1.77-.01-.05zM65.71 57.9l3.05-1.77-3.05-1.77-3.05 1.77 3.05 1.77zm-12.92 7.51l3-1.77-3.01-1.74-3.05 1.78 3.06 1.76v-.03zm44.87-26.07l3-1.77-3-1.76-3.05 1.77 3.05 1.76zm-38.4 22.31l3-1.76-3.05-1.77-3 1.77 3.06 1.76h-.01zm-12.92 7.51l3-1.76-3.06-1.77-3 1.77 3.05 1.76h.01zm44.85-26.07l3-1.76-3.05-1.77-3 1.77 3.06 1.76h-.01zm-18.99 11l3-1.77-3.06-1.76-3 1.76 3 1.77h.06zm12.87-7.51l3-1.77-3.05-1.76-3 1.76 3.06 1.77h-.01z" fill="#7A7A7A"/><path d="M94.22 41.33l-3.03 1.76-3.05-1.76 3.03-1.76 3.05 1.76zM88.14 44.86l-3.03 1.77-3.06-1.77 3.04-1.76 3.05 1.76zM81.69 48.62l-3.05 1.77-3.06-1.77 3.05-1.77 3.06 1.77zM75.22 52.37l-3.04 1.77-3.05-1.77 3.03-1.76 3.06 1.76zM68.76 56.13l-3.05 1.77-3.05-1.77 3.05-1.77 3.05 1.77zM62.29 59.89l-3.03 1.76-3.06-1.76 3.04-1.77 3.05 1.77zM55.84 63.64l-3.05 1.77-3.06-1.76 3.05-1.78 3.06 1.77zM49.37 67.4l-3.04 1.76-3.05-1.76 3.03-1.77 3.06 1.77zM42.91 71.15l-3.05 1.77-3.05-1.76 3.04-1.77 3.06 1.76z" fill="#191919"/><path d="M39.91 75.02l-.09 32.1-6.61-3.82.09-32.1 6.61 3.82z" fill="#363636"/><path d="M104.21 37.65l-.09 32.1-64.3 37.37.09-32.1 64.3-37.37z" fill="#3E3E3E"/><path d="M182.41 127.79l-.09 32.1 6.61 3.81 51.69-30.04.1-32.1-6.62-3.82-51.69 30.05z" fill="#363636"/><path d="M230.79 105.2l-3.03 1.76-3.06-1.76 3.03-1.76 3.06 1.76zM224.33 108.95l-3.04 1.77-3.06-1.76 3.05-1.77 3.05 1.76zM217.86 112.71l-3.03 1.76-3.06-1.76 3.04-1.76 3.05 1.76zM211.41 116.46l-3.05 1.78-3.06-1.77 3.05-1.77 3.06 1.76zM204.94 120.22l-3.04 1.77-3.05-1.77 3.03-1.76 3.06 1.76z" fill="#191919"/><path d="M234.1 97.74l6.62 3.82-51.71 30-6.61-3.81 51.7-30.01zm-25.74 20.49l3.05-1.77-3.06-1.76-3 1.77 3.05 1.76h-.04zm-12.89 7.52l3.05-1.77-3.05-1.77-3 1.77 3 1.77zm38.78-22.54l3.05-1.77-3.06-1.76-3 1.77 3.05 1.76h-.04zm-12.88 7.51l3-1.77-3.05-1.76-3.05 1.77 3.06 1.76h.04zm-32.39 18.78l3-1.77-3.05-1.76-3 1.76 3.06 1.77h-.01zm12.93-7.51l3-1.77-3.06-1.76-3 1.76 3.05 1.77h.01zm25.84-15l3-1.76-3.06-1.76-3 1.76 3 1.76h.06zm-12.98 7.52l3-1.77-3.05-1.76-3 1.76 3.06 1.77h-.01z" fill="#7A7A7A"/><path d="M237.26 101.44l-3.05 1.77-3.05-1.76 3.04-1.77 3.06 1.76zM198.48 123.97l-3.05 1.78-3.05-1.77 3.05-1.77 3.05 1.76zM192.01 127.74l-3.03 1.76-3.06-1.76 3.04-1.77 3.05 1.77z" fill="#191919"/><path d="M240.72 101.56l-.1 32.1-51.7 30.05.09-32.1 51.71-30.05z" fill="#3E3E3E"/><path d="M189.02 131.61l-.09 32.09-6.61-3.81.09-32.1 6.61 3.82zM240.9 93.8l-.09 32.09 6.61 3.82 38.61-22.44.1-32.1-6.62-3.82L240.9 93.8z" fill="#363636"/><path d="M282.82 74.97l-3.04 1.76-3.05-1.76 3.03-1.77 3.06 1.77zM276.36 78.72l-3.05 1.77-3.05-1.77 3.04-1.77 3.06 1.77zM263.43 86.23L260.39 88l-3.06-1.76 3.05-1.77 3.05 1.76z" fill="#191919"/><path d="M279.51 71.35l6.61 3.82-38.61 22.44-6.61-3.82 38.61-22.44zm-32.05 24.16l3.05-1.77-3.06-1.76-3 1.77 3.05 1.76h-.04zm25.89-15l3.05-1.77-3.06-1.77-3 1.77 3 1.77h.01zm-12.93 7.51l3-1.77-3-1.76-3.05 1.77 3.06 1.76h-.01zm6.48-3.76l3-1.76-3.05-1.77-3 1.77 3.06 1.76h-.01zm12.93-7.51l3-1.76-3.06-1.77-3 1.77 3 1.76h.06zm-25.91 15l3-1.76-3.05-1.77-3 1.77 3 1.76h.05z" fill="#7A7A7A"/><path d="M269.89 82.48l-3.03 1.76-3.06-1.76 3.04-1.77 3.05 1.77zM256.97 89.99l-3.04 1.76-3.05-1.76 3.03-1.77 3.06 1.77zM250.51 93.74l-3.05 1.77-3.05-1.76 3.04-1.77 3.06 1.76z" fill="#191919"/><path d="M247.51 97.61l-.09 32.1-6.61-3.82.09-32.09 6.61 3.81z" fill="#363636"/><path d="M286.13 75.17l-.1 32.1-38.61 22.44.09-32.1 38.62-22.44z" fill="#3E3E3E"/><path d="M70.22 87.52l18.82 10.94 8.11-4.67-18.83-10.95-8.1 4.68z" fill="#707070"/><path d="M70.22 87.52l.01 3.02 18.82 10.94-.01-3.02-18.82-10.94z" fill="#565656"/><path d="M89.04 98.46l.01 3.02 8.11-4.68-.01-3.01-8.11 4.67z" fill="#505050"/><path d="M84.98 80.79v12.53c.048.508.365.95.83 1.16 1.27.66 2.78.66 4.05 0 .476-.21.8-.662.85-1.18V80.77a1.44 1.44 0 01-.85 1.19 4.43 4.43 0 01-4 0 1.44 1.44 0 01-.88-1.17z" fill="#E2A966"/><path d="M85.83 79.61a1.24 1.24 0 000 2.35 4.43 4.43 0 004 0c1.12-.65 1.14-1.7 0-2.35a4.45 4.45 0 00-4 0z" fill="#FFE180"/><path d="M77.07 76.19v12.52c.045.511.362.959.83 1.17a4.45 4.45 0 004.05 0 1.45 1.45 0 00.85-1.18V76.17a1.42 1.42 0 01-.85 1.18 4.43 4.43 0 01-4 0 1.41 1.41 0 01-.88-1.16z" fill="#E2A966"/><path d="M77.92 75.01c-1.13.65-1.13 1.7 0 2.34a4.43 4.43 0 004 0 1.23 1.23 0 000-2.34 4.45 4.45 0 00-4 0z" fill="#FFE180"/><path d="M62.11 92.13l18.83 10.94 8.1-4.68-18.82-10.94-8.11 4.68z" fill="#707070"/><path d="M62.11 92.13l.01 3.02 18.83 10.94-.01-3.02-18.83-10.94z" fill="#565656"/><path d="M80.94 103.07l.01 3.02 8.1-4.68-.01-3.02-8.1 4.68z" fill="#505050"/><path d="M76.88 85.4v12.52c.049.513.37.96.84 1.17a4.45 4.45 0 004.05 0 1.45 1.45 0 00.89-1.19V85.37a1.42 1.42 0 01-.85 1.18 4.45 4.45 0 01-4.05 0 1.42 1.42 0 01-.88-1.15z" fill="#E2A966"/><path d="M77.73 84.22a1.23 1.23 0 000 2.34 4.45 4.45 0 004.05 0c1.12-.65 1.14-1.69 0-2.34a4.43 4.43 0 00-4.05 0z" fill="#FFE180"/><path d="M68.97 80.79v12.53c.052.51.373.952.84 1.16 1.27.66 2.78.66 4.05 0a1.43 1.43 0 00.84-1.18V80.77a1.46 1.46 0 01-.85 1.19 4.45 4.45 0 01-4.05 0 1.44 1.44 0 01-.83-1.17z" fill="#E2A966"/><path d="M69.81 79.61a1.24 1.24 0 000 2.35 4.45 4.45 0 004.05 0 1.24 1.24 0 000-2.35 4.45 4.45 0 00-4.05 0z" fill="#FFE180"/><path d="M54.01 96.73l18.83 10.94 8.1-4.68-18.83-10.93-8.1 4.67z" fill="#707070"/><path d="M54.01 96.73l.01 3.02 18.83 10.94-.01-3.02-18.83-10.94z" fill="#565656"/><path d="M72.84 107.67l.01 3.02 8.1-4.68-.01-3.02-8.1 4.68z" fill="#505050"/><path d="M68.77 90v12.53c.048.508.365.95.83 1.16a4.45 4.45 0 004 0c.479-.207.805-.66.85-1.18V89.98a1.45 1.45 0 01-.84 1.19 4.45 4.45 0 01-4.05 0 1.46 1.46 0 01-.79-1.17z" fill="#E2A966"/><path d="M69.66 88.82a1.24 1.24 0 000 2.35 4.45 4.45 0 004.05 0 1.24 1.24 0 000-2.35 4.45 4.45 0 00-4.05 0z" fill="#FFE180"/><path d="M60.86 85.4v12.52c.045.511.362.959.83 1.17a4.45 4.45 0 004.05 0 1.44 1.44 0 00.92-1.19V85.37a1.43 1.43 0 01-.84 1.18 4.45 4.45 0 01-4 0 1.43 1.43 0 01-.96-1.15z" fill="#E2A966"/><path d="M61.71 84.22a1.23 1.23 0 000 2.34 4.45 4.45 0 004 0c1.12-.65 1.13-1.69 0-2.34a4.45 4.45 0 00-4 0z" fill="#FFE180"/><path d="M11.88 116.61l-.09 32.1 30.62 17.68 41.31-24.01.09-32.1-30.62-17.67-41.31 24z" fill="#C6C6C6"/><path d="M83.81 110.28L42.5 134.29l-30.62-17.68 41.31-24 30.62 17.67z" fill="#C6C6C6"/><path d="M83.81 110.28l-11.51 6.65-30.62-17.68 11.51-6.64 30.62 17.67z" fill="#D6D6D6"/><path d="M83.81 110.28l-.09 32.1-41.31 24.01.09-32.1 41.31-24.01z" fill="#ABABAB"/><path d="M83.81 110.28l-.09 32.1-11.46 6.65.09-32.1 11.46-6.65z" fill="#BCBCBC"/><path d="M42.5 134.29l-.09 32.1-30.62-17.68.09-32.1 30.62 17.68z" fill="#777"/><path d="M32.31 134.23l6.35 11.38-.04 13.76-22.99-13.27.04-13.77 6.38-4.02 10.26 5.92z" fill="#5B5B5B"/><path d="M34.48 143.64l-.03 8.3-14.7-8.49.02-8.3 14.71 8.49z" fill="#8E8E8E"/><path d="M34.45 151.94l4.2-2.43.01-3.9-1.85-3.32-2.33 1.35-.03 8.3z" fill="#989898"/><path d="M32.29 134.23l-5.5-3.17-7.04 4.09 14.7 8.49 2.33-1.35-4.49-8.06z" fill="#C5C5C5"/><path d="M147.02 181.35l.08-27.29-21.55-12.44-26.77 15.56-1.09-.63-7.01 4.07-.08 27.29 23.51 13.57 7-4.07.08-1.05 25.83-15.01z" fill="#383838"/><path d="M147.1 154.06l-.08 27.29-26.77 15.56.07-27.29 26.78-15.56z" fill="#585858"/><path d="M147.1 154.06l-26.78 15.56.87.5-7 4.07-23.51-13.57 7.01-4.07 1.09.63 26.77-15.56 21.55 12.44z" fill="#626262"/><path d="M121.19 170.12l-.08 27.29-7 4.07.08-27.29 7-4.07z" fill="#585858"/><path d="M114.19 174.19l-.08 27.29-23.51-13.57.08-27.29 23.51 13.57z" fill="#3D3D3D"/><path d="M94.12 176.75a16.78 16.78 0 007.68 13.15c4.21 2.38 7.6.37 7.57-4.49-.03-4.86-3.46-10.74-7.67-13.12-4.21-2.38-7.61-.39-7.58 4.46z" fill="#626262"/><path d="M109.27 186.7c.071-.46.104-.925.1-1.39a16.781 16.781 0 00-7.71-13.12 9.328 9.328 0 00-1.11-.53c-.07.457-.104.918-.1 1.38a16.75 16.75 0 007.68 13.12c.379.218.773.409 1.18.57" fill="#373737"/><path d="M127.11 67.8l-4.69 2.72-6.76-3.9 4.68-2.73 6.77 3.91zM132.83 64.49l-4.68 2.72-6.77-3.91 4.68-2.72 6.77 3.91zM138.56 61.17l-4.69 2.72-6.76-3.9 4.68-2.73 6.77 3.91zM144.28 57.86l-4.68 2.72-6.77-3.91 4.69-2.72 6.76 3.91zM150.01 54.54l-4.68 2.72-6.77-3.9 4.68-2.72 6.77 3.9zM155.73 51.23l-4.68 2.72-6.77-3.91 4.69-2.72 6.76 3.91zM161.46 47.92l-4.69 2.72-6.76-3.91 4.68-2.72 6.77 3.91zM167.18 44.6l-4.68 2.72-6.77-3.9 4.68-2.73 6.77 3.91z" fill="#9AB2AF"/><path d="M121.6 86.94l-3.6 2.1-6.34-3.66 3.61-2.1 6.33 3.66z" fill="#444"/><path d="M131.42 89.03l-10.19 5.92-4.38-2.54 10.18-5.91 4.39 2.53z" fill="#C1C1C1"/><path d="M128.65 89.04l-4.35 2.53-4.38-2.53 4.35-2.53 4.38 2.53z" fill="#FFE000"/><path d="M128.65 89.04v1.63l-4.36 2.53.01-1.63 4.35-2.53zM124.3 91.57l-.01 1.63-4.38-2.53.01-1.63 4.38 2.53z" fill="#FFE000"/><path d="M116.87 80.63l-10.19 5.92-4.38-2.53 10.18-5.92 4.39 2.53z" fill="#C1C1C1"/><path d="M114.1 80.64l-4.35 2.53-4.38-2.53 4.35-2.53 4.38 2.53z" fill="#FFE000"/><path d="M114.1 80.64v1.63l-4.36 2.53.01-1.63 4.35-2.53z" fill="#FFE000"/><path d="M109.75 83.17l-.01 1.63-4.38-2.53.01-1.63 4.38 2.53z" fill="#FFE000"/><path d="M137.95 92.79l-10.19 5.92-4.38-2.53 10.18-5.92 4.39 2.53z" fill="#C1C1C1"/><path d="M135.18 92.8l-4.35 2.53-4.38-2.53 4.35-2.53 4.38 2.53z" fill="#FFE000"/><path d="M135.18 92.8v1.63l-4.36 2.53.01-1.63 4.35-2.53z" fill="#FFE000"/><path d="M130.83 95.33l-.01 1.63-4.38-2.53.01-1.63 4.38 2.53z" fill="#FFE000"/><path d="M93.17 155.78l-7.64 4.44-12.57-7.26 7.64-4.44 12.57 7.26z" fill="#B8A96E"/><path d="M93.17 155.78v1.61l-7.64 4.44v-1.61l7.64-4.44z" fill="#8D8254"/><path d="M85.53 160.22v1.61l-12.57-7.26v-1.61l12.57 7.26z" fill="#847A4F"/><path d="M168.44 43.37a16.88 16.88 0 0015.29 0c4.19-2.44 4.17-6.41-.07-8.85a16.82 16.82 0 00-15.26 0c-4.21 2.44-4.18 6.38.04 8.85z" fill="#22CADD"/><path d="M171.04 41.9a11.1 11.1 0 0010.07 0c2.77-1.61 2.75-4.22 0-5.83a11.06 11.06 0 00-10.05 0c-2.82 1.57-2.8 4.18-.02 5.83z" fill="#AFAB95"/><path d="M171.03 41.9a11.08 11.08 0 0010.06 0 11.08 11.08 0 00-10.06 0z" fill="#fff"/><path d="M128.32 118.74l-12.37 7.16a10.211 10.211 0 01-9.26 0 3.29 3.29 0 01-1.94-2.71v8.08a3.271 3.271 0 001.94 2.7 10.15 10.15 0 009.26 0l12.37-7.19a3.26 3.26 0 001.91-2.67v-8.07a3.271 3.271 0 01-1.91 2.7z" fill="#AAA"/><path d="M128.3 113.37c2.57 1.48 2.57 3.89 0 5.37l-12.35 7.16a10.211 10.211 0 01-9.26 0c-2.58-1.49-2.59-3.89 0-5.37l12.37-7.19a10.222 10.222 0 019.24.03z" fill="#C9C9C9"/><path d="M123.84 131.3l-.02 4.82 7.55 4.35 7.49-4.35.01-4.82-7.54-4.35-7.49 4.35z" fill="#707070"/><path d="M138.87 131.3l-7.49 4.36-7.54-4.36 7.49-4.35 7.54 4.35z" fill="#707070"/><path d="M138.87 131.3l-.01 4.82-7.49 4.35.01-4.81 7.49-4.36z" fill="#565656"/><path d="M131.38 135.66l-.01 4.81-7.55-4.35.02-4.82 7.54 4.36z" fill="#505050"/><path d="M166.73 52.95l20.68 11.95-16.89 9.82-4.38 2.55-15.55 9-20.68-11.94 15.54-9 4.38-2.54 16.9-9.84zm.11 18.91l12-7-12.07-7-12 7 12.07 7zm-16.27 9.45l12-7-12.07-7-12 7 12.06 7h.01z" fill="#F2F2F2"/><path d="M170.9 65.01l-4 2.33-4.03-2.33 4-2.32 4.03 2.32zM154.79 74.37l-4 2.33-4.03-2.33 4-2.32 4.03 2.32z" fill="#F2F2F2"/></svg>