<svg aria-hidden="true" xmlns="http://www.w3.org/2000/svg" viewBox="0 0 64 64"><path d="M62.8 20L33.5.5c-1-.6-2.1-.6-3.1 0L1.2 20c-.7.5-1.2 1.4-1.2 2.2v19.5c0 .9.5 1.8 1.2 2.3l29.2 19.5c1 .6 2.1.6 3.1 0L62.8 44c.7-.5 1.2-1.4 1.2-2.3V22.2c0-.8-.5-1.7-1.2-2.2zM34.7 7.9l21.5 14.4-9.6 6.4-11.9-8V7.9zm-5.5 0v12.8l-11.9 8-9.6-6.4L29.2 7.9zM5.5 27.4l6.9 4.6-6.9 4.6v-9.2zm23.7 28.7L7.7 41.7l9.6-6.4 11.9 8v12.8zM32 38.5L22.3 32l9.7-6.5 9.7 6.5-9.7 6.5zm2.7 17.6V43.3l11.9-8 9.6 6.4-21.5 14.4zm23.8-19.5L51.6 32l6.9-4.6v9.2z"/></svg>