<svg aria-hidden="true" xmlns="http://www.w3.org/2000/svg" viewBox="0 0 64 64"><path d="M32 .8C14.4.8 0 15.1 0 32.8c0 14.1 9.2 26.1 21.9 30.4 1.6.3 2.2-.7 2.2-1.5 0-.7 0-2.8-.1-5.5-8.9 2-10.8-4.3-10.8-4.3-1.5-3.7-3.6-4.6-3.6-4.6-2.9-2 .2-2 .2-2 3.2.2 4.9 3.3 4.9 3.3 2.8 4.9 7.5 3.5 9.3 2.6.3-2.1 1.1-3.5 2-4.3-7-.7-14.5-3.5-14.5-15.7 0-3.5 1.3-6.3 3.3-8.5-.3-.8-1.4-4 .3-8.5 0 0 2.7-.9 8.8 3.3 2.6-.7 5.3-1.1 8-1.1s5.5.3 8 1.1c6.1-4.1 8.7-3.3 8.7-3.3 1.7 4.4.7 7.7.3 8.5 2 2.2 3.3 5.1 3.3 8.5 0 12.2-7.5 15-14.6 15.7 1.1 1 2.2 3 2.2 5.9 0 4.3-.1 7.7-.1 8.7 0 .9.6 1.8 2.2 1.5C54.8 58.8 64 46.8 64 32.7 63.9 15.1 49.6.8 32 .8z"/></svg>