<svg role="img" aria-hidden="true" xmlns="http://www.w3.org/2000/svg" viewBox="0 0 64 64"><path d="M56.9 14.8l3.9-4.9C62 8.6 62.3 7.6 62.4 7c-3 1.9-5.9 2.5-7.9 2.5h-.8l-.5-.5c-2.5-2.2-5.5-3.4-8.9-3.4-7.2 0-13 5.9-13 13 0 .5 0 1 .1 1.5l.3 2.1-2.2-.1c-13.2-.3-24-11.6-25.8-13.6-2.9 5.3-1.3 10.2.5 13.3l3.5 5.8-5.5-3c.1 4.3 1.8 7.7 4.9 10.2l2.7 2L7 37.9c1.8 5.3 5.6 7.4 8.6 8.3l3.8 1-3.3 2.3c-5.7 4-13 3.8-16.1 3.5 6.6 4.5 14.2 5.5 19.7 5.5 4 0 7-.5 7.7-.7C56.4 51 57.7 25.2 57.6 20v-.8l.6-.5c3.5-3.3 5-5.1 5.8-6.1-.3.2-.7.3-1.2.4l-5.9 1.8z"/></svg>